<?xml version="1.0" encoding="UTF-8" standalone="no"?>
<!DOCTYPE svg PUBLIC "-//W3C//DTD SVG 1.1//EN" "http://www.w3.org/Graphics/SVG/1.1/DTD/svg11.dtd">
<svg width="100%" height="100%" viewBox="0 0 48 42" version="1.1" xmlns="http://www.w3.org/2000/svg" xmlns:xlink="http://www.w3.org/1999/xlink" xml:space="preserve" xmlns:serif="http://www.serif.com/" style="fill-rule:evenodd;clip-rule:evenodd;stroke-linejoin:round;stroke-miterlimit:2;">
    <g transform="matrix(2.32837,0,0,2.32837,-31.4728,-32.7527)">
        <path d="M34.132,23.46C34.132,23.46 32.977,19.272 31.14,15.643C30.192,13.769 28.664,14.051 26.239,14.128C23.691,14.209 19.981,14.555 16.591,16.365C16.523,16.593 16.571,17.296 16.49,17.513C16.22,18.237 15.964,18.499 16.425,19.741L16.251,20.583L16.536,20.856L16.313,21.059L16.306,21.339L16.527,21.825L16.165,22.05L16.822,22.394C16.599,22.799 16.04,22.832 15.432,22.812C15.565,23.352 15.884,23.635 16.472,23.549C16.243,24.016 15.86,24.24 15.423,24.375C15.945,24.709 16.352,24.676 16.678,24.383L16.712,24.518L16.54,25.025L15.648,26.173C14.844,26.261 13.61,26.341 13.521,27.408C13.445,28.31 14.571,28.263 15.057,28.198C15.713,28.11 16.871,27.446 16.381,26.738L16.999,26.162L16.931,29.93L28.004,31.76L31.449,30.874L32.188,28.594L32.521,28.884L32.484,27.553L33.738,25.926L33.559,24.677L34.132,23.46ZM14.881,26.761C15.224,26.761 15.502,26.948 15.502,27.178C15.502,27.408 15.224,27.595 14.881,27.595C14.537,27.595 14.259,27.408 14.259,27.178C14.259,26.948 14.537,26.761 14.881,26.761Z" style="fill:rgb(255,203,155);"/>
        <clipPath id="_clip1">
            <path d="M34.132,23.46C34.132,23.46 32.977,19.272 31.14,15.643C30.192,13.769 28.664,14.051 26.239,14.128C23.691,14.209 19.981,14.555 16.591,16.365C16.523,16.593 16.571,17.296 16.49,17.513C16.22,18.237 15.964,18.499 16.425,19.741L16.251,20.583L16.536,20.856L16.313,21.059L16.306,21.339L16.527,21.825L16.165,22.05L16.822,22.394C16.599,22.799 16.04,22.832 15.432,22.812C15.565,23.352 15.884,23.635 16.472,23.549C16.243,24.016 15.86,24.24 15.423,24.375C15.945,24.709 16.352,24.676 16.678,24.383L16.712,24.518L16.54,25.025L15.648,26.173C14.844,26.261 13.61,26.341 13.521,27.408C13.445,28.31 14.571,28.263 15.057,28.198C15.713,28.11 16.871,27.446 16.381,26.738L16.999,26.162L16.931,29.93L28.004,31.76L31.449,30.874L32.188,28.594L32.521,28.884L32.484,27.553L33.738,25.926L33.559,24.677L34.132,23.46ZM14.881,26.761C15.224,26.761 15.502,26.948 15.502,27.178C15.502,27.408 15.224,27.595 14.881,27.595C14.537,27.595 14.259,27.408 14.259,27.178C14.259,26.948 14.537,26.761 14.881,26.761Z"/>
        </clipPath>
        <g clip-path="url(#_clip1)">
            <path d="M33.454,25.592L29.845,19.312L27.889,31.962L32.385,31.654L33.454,25.592Z" style="fill:rgb(232,132,109);"/>
            <path d="M23.691,28.62L22.553,29.002L21.337,28.855L20.806,28.412L21.298,29.264L22.915,29.354L23.691,28.62Z" style="fill:rgb(232,132,109);"/>
            <g transform="matrix(1,0,0,1,-0.87876,-3.13866)">
                <path d="M23.042,28.871L22.688,29.268L21.337,28.855L21.248,28.717L23.042,28.871Z" style="fill:rgb(232,132,109);"/>
            </g>
            <path d="M19.243,21.529C16.973,21.819 17.801,24.822 17.801,24.822C18.687,24.744 19.698,24.699 20.808,24.845C20.599,23.433 20.782,21.333 19.243,21.529Z" style="fill:white;"/>
            <clipPath id="_clip2">
                <path d="M19.243,21.529C16.973,21.819 17.801,24.822 17.801,24.822C18.687,24.744 19.698,24.699 20.808,24.845C20.599,23.433 20.782,21.333 19.243,21.529Z"/>
            </clipPath>
            <g clip-path="url(#_clip2)">
                <g transform="matrix(1.20773,0,0,1.20773,-3.28956,-5.15656)">
                    <circle cx="18.19" cy="23.716" r="1.134"/>
                </g>
                <g transform="matrix(1.09333,0,0,1.09333,-1.20858,-2.44341)">
                    <circle cx="18.19" cy="23.716" r="1.134" style="fill:white;"/>
                </g>
                <g transform="matrix(0.940649,0,0,0.940649,1.56869,1.17756)">
                    <circle cx="18.19" cy="23.716" r="1.134" style="fill:url(#_Radial3);"/>
                </g>
                <g transform="matrix(1.20341,0,0,1.20341,-7.12893,-5.06018)">
                    <circle cx="21.345" cy="23.687" r="0.571"/>
                </g>
                <g transform="matrix(0.468209,-0.123403,0.0815178,0.30929,7.32039,18.5706)">
                    <circle cx="21.345" cy="23.687" r="0.571" style="fill:white;"/>
                </g>
            </g>
            <path d="M17.432,20.085L15.372,20.956L15.372,23.181L15.296,24.716L16.433,25.191L16.995,24.569L17.056,23.243L18.633,21.718L20.62,21.732L20.714,21.176L23.207,20.16L22.98,20.659C23.944,20.289 24.912,19.92 25.22,19.429L25.581,19.312L27.197,20.986L29.494,21.567L29.893,19.382L23.691,18.534L17.432,20.085Z" style="fill:rgb(93,53,19);"/>
            <path d="M25.095,26.585C22.985,26.853 21.188,26.861 19.418,26.846L20.483,27.84L23.487,28.122C24.348,27.585 24.967,27.066 25.095,26.585Z" style="fill:rgb(50,16,8);"/>
            <g transform="matrix(1,0,0,1,-0.12185,-1.30707)">
                <path d="M22.119,26.714L22.294,27.041L20.506,26.887L20.375,26.751L20.786,26.704L22.119,26.714Z" style="fill:rgb(50,16,8);"/>
            </g>
            <g transform="matrix(1,0,0,1,0.583301,1.41665)">
                <path d="M22.011,27.396L23.091,27.172L21.988,27.61L20.783,27.452L20.225,27.014L20.057,26.704L20.919,27.279L22.011,27.396Z" style="fill:rgb(50,16,8);"/>
            </g>
            <path d="M24.192,26.815C22.059,26.98 21.84,26.934 20.077,26.986L20.524,27.741C21.508,27.854 22.501,27.922 23.509,27.914C23.667,27.738 23.788,27.604 23.883,27.476C23.904,27.448 23.111,27.51 22.895,27.478C22.855,27.472 22.899,27.444 22.902,27.439C22.919,27.414 23.985,27.327 24,27.301C24.08,27.165 24.139,27.017 24.192,26.815Z" style="fill:white;"/>
            <path d="M29.036,20.564L25.971,20.564L25.971,25.641L29.036,25.641L32.01,25.294L31.539,22.699L29.036,20.564Z" style="fill:url(#_Linear4);"/>
            <g transform="matrix(1.44123,0,0,1.44123,-10.8391,-11.4074)">
                <circle cx="24.429" cy="23.954" r="2.091" style="fill:url(#_Linear5);"/>
            </g>
            <g transform="matrix(1.09459,0,0,1.09459,-2.6486,-3.10384)">
                <circle cx="24.429" cy="23.954" r="2.091" style="fill:url(#_Radial6);"/>
                <clipPath id="_clip7">
                    <circle cx="24.429" cy="23.954" r="2.091"/>
                </clipPath>
                <g clip-path="url(#_clip7)">
                    <g transform="matrix(0.929241,-0.424599,0.395891,0.866413,-7.44988,13.4923)">
                        <circle cx="24.429" cy="23.954" r="2.091" style="fill:url(#_Radial8);"/>
                    </g>
                    <g transform="matrix(0.907485,0,0,0.907485,1.83163,2.98443)">
                        <circle cx="24.42" cy="23.108" r="1.12" style="fill:url(#_Radial9);"/>
                    </g>
                </g>
            </g>
            <g transform="matrix(1.04227,0,0,1.04227,-1.46922,-1.30063)">
                <path d="M29.992,26.455C30.884,26.455 31.609,27.18 31.609,28.073C31.609,28.965 30.884,29.69 29.992,29.69C29.099,29.69 28.374,28.965 28.374,28.073C28.374,27.18 29.099,26.455 29.992,26.455ZM29.992,27.358C30.386,27.358 30.707,27.678 30.707,28.073C30.707,28.467 30.386,28.788 29.992,28.788C29.597,28.788 29.276,28.467 29.276,28.073C29.276,27.678 29.597,27.358 29.992,27.358Z" style="fill:rgb(180,180,180);"/>
            </g>
            <g transform="matrix(1.06955,0,0,1.33049,-1.42603,-9.56189)">
                <ellipse cx="15.313" cy="27.723" rx="1.521" ry="0.961" style="fill:rgb(180,180,180);"/>
            </g>
            <path d="M16.976,24.546L16.325,25.282L15.636,26.188C15.7,26.263 15.147,26.751 15.076,26.777C14.73,26.903 15.32,27.517 15.509,27.136C15.53,27.093 16.348,26.7 16.381,26.76L16.844,26.552L17,26.184L16.976,24.546Z" style="fill:white;"/>
            <g transform="matrix(1,0,0,1,-3.77754,-0.456819)">
                <path d="M34.274,21.069C34.355,24.441 33.855,25.843 33.214,26.764C33.291,27.175 33.239,27.522 33.108,27.829C33.57,27.814 33.981,28.005 34.241,28.097C34.282,27.729 34.378,27.394 34.626,27.145L35.279,24.82L36.501,28.354C39.952,24.067 37.789,18.408 36.95,13.072L18.324,16.015L20.124,22.294C20.517,22.242 20.808,22.027 20.537,21.69C24.417,20.019 28.954,19.815 33.735,20.153L34.274,21.069Z" style="fill:url(#_Radial10);"/>
            </g>
            <path d="M29.566,15.743C29.052,15.688 28.736,15.669 28.736,15.669C28.797,14.791 27.835,14.547 26.401,14.699L24.135,14.926C23.44,15.057 23.214,15.268 23.148,15.507C22.64,15.535 22.147,15.621 21.685,15.833C21.229,15.483 20.441,15.507 19.777,15.598C19.025,15.701 17.664,16.151 17.169,16.453C16.878,16.631 16.808,17.411 16.808,17.411C16.398,17.616 16.089,18.11 15.788,18.625L16.181,20.655C16.453,19.789 16.679,18.614 16.935,18.999C16.935,18.999 17.137,19.422 17.325,19.418C18.068,19.402 20.845,18.727 20.845,18.727C21.566,18.627 21.809,17.919 21.686,16.744C22.062,16.55 22.449,16.524 22.841,16.561L22.636,18.001C22.723,18.452 23.075,18.611 23.607,18.57L27.656,18.429C28.129,18.428 28.311,18.189 28.369,17.85L29.776,18.443L33.051,27.003L34.437,25.995C32.687,21.511 30.962,15.892 29.566,15.743Z" style="fill:rgb(48,48,48);"/>
            <path d="M27.737,15.37C27.093,15.012 24.216,15.177 23.482,15.641C23.221,15.806 22.764,17.678 23.242,17.935C23.891,18.284 26.643,18.128 27.382,17.672C27.843,17.387 28.056,15.547 27.737,15.37Z" style="fill:url(#_Linear11);"/>
            <g transform="matrix(0.976486,-0.21558,0.21558,0.976486,-3.18656,4.13888)">
                <path d="M20.697,16.758C20.169,16.512 17.796,16.624 17.269,16.87C16.823,17.078 16.528,18.578 16.974,18.786C17.502,19.032 19.732,19.042 20.26,18.796C20.706,18.588 21.143,16.966 20.697,16.758Z" style="fill:url(#_Linear12);"/>
            </g>
        </g>
    </g>
    <defs>
        <radialGradient id="_Radial3" cx="0" cy="0" r="1" gradientUnits="userSpaceOnUse" gradientTransform="matrix(-0.00498242,-2.41083,2.41083,-0.00498242,18.0834,24.8457)"><stop offset="0" style="stop-color:rgb(137,117,251);stop-opacity:1"/><stop offset="0.55" style="stop-color:rgb(117,99,212);stop-opacity:1"/><stop offset="1" style="stop-color:rgb(44,33,68);stop-opacity:1"/></radialGradient>
        <linearGradient id="_Linear4" x1="0" y1="0" x2="1" y2="0" gradientUnits="userSpaceOnUse" gradientTransform="matrix(6.80251,0.253246,-0.253246,6.80251,24.0913,23.4863)"><stop offset="0" style="stop-color:rgb(80,80,80);stop-opacity:1"/><stop offset="0.44" style="stop-color:rgb(57,57,57);stop-opacity:1"/><stop offset="0.7" style="stop-color:rgb(83,83,83);stop-opacity:1"/><stop offset="0.8" style="stop-color:rgb(71,71,71);stop-opacity:1"/><stop offset="1" style="stop-color:rgb(79,79,79);stop-opacity:1"/></linearGradient>
        <linearGradient id="_Linear5" x1="0" y1="0" x2="1" y2="0" gradientUnits="userSpaceOnUse" gradientTransform="matrix(4.71993,0.175715,-0.175715,4.71993,24.2365,24.211)"><stop offset="0" style="stop-color:rgb(80,80,80);stop-opacity:1"/><stop offset="0.44" style="stop-color:rgb(57,57,57);stop-opacity:1"/><stop offset="0.7" style="stop-color:rgb(83,83,83);stop-opacity:1"/><stop offset="0.8" style="stop-color:rgb(71,71,71);stop-opacity:1"/><stop offset="1" style="stop-color:rgb(79,79,79);stop-opacity:1"/></linearGradient>
        <radialGradient id="_Radial6" cx="0" cy="0" r="1" gradientUnits="userSpaceOnUse" gradientTransform="matrix(2.0563,1.17889,-1.17889,2.0563,24.4292,23.9543)"><stop offset="0" style="stop-color:rgb(239,0,0);stop-opacity:1"/><stop offset="0.48" style="stop-color:rgb(242,9,9);stop-opacity:1"/><stop offset="0.64" style="stop-color:rgb(248,33,33);stop-opacity:1"/><stop offset="0.77" style="stop-color:rgb(255,59,59);stop-opacity:1"/><stop offset="1" style="stop-color:white;stop-opacity:1"/></radialGradient>
        <radialGradient id="_Radial8" cx="0" cy="0" r="1" gradientUnits="userSpaceOnUse" gradientTransform="matrix(2.79242,0.066988,-0.0624589,2.99491,23.0226,23.6048)"><stop offset="0" style="stop-color:rgb(255,81,81);stop-opacity:1"/><stop offset="0.62" style="stop-color:rgb(245,68,68);stop-opacity:1"/><stop offset="0.82" style="stop-color:rgb(222,35,35);stop-opacity:1"/><stop offset="1" style="stop-color:rgb(197,0,0);stop-opacity:1"/></radialGradient>
        <radialGradient id="_Radial9" cx="0" cy="0" r="1" gradientUnits="userSpaceOnUse" gradientTransform="matrix(1.00835,-0.659932,0.659932,1.00835,24.5315,22.9404)"><stop offset="0" style="stop-color:white;stop-opacity:0"/><stop offset="1" style="stop-color:white;stop-opacity:0.24"/></radialGradient>
        <radialGradient id="_Radial10" cx="0" cy="0" r="1" gradientUnits="userSpaceOnUse" gradientTransform="matrix(10.1324,0.241651,-0.241651,10.1324,27.3135,24.9209)"><stop offset="0" style="stop-color:rgb(149,173,176);stop-opacity:1"/><stop offset="1" style="stop-color:white;stop-opacity:1"/></radialGradient>
        <linearGradient id="_Linear11" x1="0" y1="0" x2="1" y2="0" gradientUnits="userSpaceOnUse" gradientTransform="matrix(2.12552,2.83077,-2.83077,2.12552,24.1292,15.6159)"><stop offset="0" style="stop-color:rgb(35,248,255);stop-opacity:1"/><stop offset="0.07" style="stop-color:rgb(249,254,254);stop-opacity:1"/><stop offset="0.32" style="stop-color:rgb(251,254,254);stop-opacity:1"/><stop offset="0.38" style="stop-color:rgb(61,218,223);stop-opacity:1"/><stop offset="0.41" style="stop-color:rgb(89,223,228);stop-opacity:1"/><stop offset="0.48" style="stop-color:white;stop-opacity:1"/><stop offset="0.56" style="stop-color:rgb(0,206,213);stop-opacity:1"/><stop offset="0.68" style="stop-color:rgb(234,251,251);stop-opacity:1"/><stop offset="0.74" style="stop-color:rgb(67,219,224);stop-opacity:1"/><stop offset="1" style="stop-color:white;stop-opacity:1"/></linearGradient>
        <linearGradient id="_Linear12" x1="0" y1="0" x2="1" y2="0" gradientUnits="userSpaceOnUse" gradientTransform="matrix(1.83599,4.00556,-4.00556,1.83599,18.2112,17.2411)"><stop offset="0" style="stop-color:rgb(35,248,255);stop-opacity:1"/><stop offset="0.07" style="stop-color:rgb(249,254,254);stop-opacity:1"/><stop offset="0.19" style="stop-color:rgb(251,254,254);stop-opacity:1"/><stop offset="0.32" style="stop-color:rgb(61,218,223);stop-opacity:1"/><stop offset="0.36" style="stop-color:rgb(89,223,228);stop-opacity:1"/><stop offset="0.4" style="stop-color:white;stop-opacity:1"/><stop offset="0.56" style="stop-color:rgb(0,206,213);stop-opacity:1"/><stop offset="0.68" style="stop-color:rgb(234,251,251);stop-opacity:1"/><stop offset="0.74" style="stop-color:rgb(67,219,224);stop-opacity:1"/><stop offset="1" style="stop-color:white;stop-opacity:1"/></linearGradient>
    </defs>
</svg>
