<?xml version="1.0" encoding="UTF-8" standalone="no"?>
<!DOCTYPE svg PUBLIC "-//W3C//DTD SVG 1.1//EN" "http://www.w3.org/Graphics/SVG/1.1/DTD/svg11.dtd">
<svg width="100%" height="100%" viewBox="0 0 48 48" version="1.1" xmlns="http://www.w3.org/2000/svg" xmlns:xlink="http://www.w3.org/1999/xlink" xml:space="preserve" xmlns:serif="http://www.serif.com/" style="fill-rule:evenodd;clip-rule:evenodd;stroke-linejoin:round;stroke-miterlimit:2;">
    <g id="path1092" transform="matrix(0.0639915,0,0,0.0639915,-18.18,-14.0333)">
        <path d="M659.1,220C557.3,220 544.5,220.4 504.5,222.3C464.6,224.1 437.3,230.4 413.5,239.7C388.8,249.3 367.9,262.1 347.1,282.9C326.2,303.7 313.4,324.6 303.8,349.3C294.5,373.1 288.2,400.4 286.4,440.2C284.6,480.2 284.1,493 284.1,594.7C284.1,696.5 284.6,709.2 286.4,749.2C288.2,789.1 294.6,816.3 303.8,840.1C313.4,864.7 326.2,885.7 347.1,906.5C367.9,927.3 388.9,940.2 413.5,949.7C437.4,959 464.6,965.3 504.5,967.1C544.5,968.9 557.3,969.4 659.1,969.4C761,969.4 773.7,969 813.7,967.1C853.6,965.3 880.9,959 904.8,949.7C929.5,940.1 950.3,927.3 971.2,906.5C992.1,885.7 1004.9,864.8 1014.5,840.1C1023.7,816.3 1030,789 1031.9,749.2C1033.7,709.2 1034.2,696.5 1034.2,594.7C1034.2,492.9 1033.7,480.2 1031.9,440.2C1030,400.3 1023.7,373.1 1014.5,349.3C1004.9,324.7 992.1,303.7 971.2,282.9C950.3,262.1 929.5,249.3 904.8,239.7C880.9,230.4 853.6,224.1 813.7,222.3C773.7,220.5 761,220 659.1,220ZM625.4,287.6L659,287.6C759.1,287.6 771,288 810.5,289.8C847.1,291.5 866.9,297.6 880.1,302.7C897.6,309.5 910.1,317.6 923.2,330.7C936.3,343.8 944.5,356.3 951.3,373.8C956.4,387 962.6,406.8 964.2,443.4C966,482.9 966.4,494.8 966.4,594.8C966.4,694.8 966,706.7 964.2,746.2C962.5,782.7 956.4,802.6 951.3,815.8C944.5,833.3 936.4,845.7 923.2,858.8C910.1,871.9 897.6,880 880.1,886.8C866.9,892 847,898 810.5,899.7C771,901.5 759.1,901.9 659,901.9C558.9,901.9 547,901.5 507.5,899.7C470.9,898 451.1,891.9 437.9,886.8C420.4,880 407.9,871.9 394.8,858.8C381.7,845.7 373.5,833.2 366.7,815.7C361.6,802.5 355.4,782.7 353.8,746.1C352,706.6 351.6,694.7 351.6,594.7C351.6,494.6 352,482.8 353.8,443.3C355.5,406.8 361.6,386.9 366.7,373.7C373.5,356.2 381.6,343.7 394.8,330.6C407.9,317.5 420.4,309.4 437.9,302.6C451.1,297.4 471,291.4 507.5,289.7C542.1,288 555.6,287.5 625.4,287.6ZM859.3,349.8C834.5,349.8 814.3,369.9 814.3,394.8C814.3,419.6 834.5,439.8 859.3,439.8C884.1,439.8 904.3,419.7 904.3,394.8C904.3,369.9 884.1,349.8 859.3,349.8ZM659.1,402.3C552.7,402.3 466.5,488.5 466.5,594.7C466.5,701 552.7,787.1 659.1,787.1C765.5,787.1 851.6,701 851.6,594.7C851.6,488.5 765.4,402.3 659.1,402.3ZM659.1,469.9C728.1,469.9 784.1,525.8 784.1,594.8C784.1,663.8 728.1,719.7 659.1,719.7C590.1,719.7 534.1,663.8 534.1,594.8C534.1,525.8 590,469.9 659.1,469.9Z" style="fill:white;fill-rule:nonzero;"/>
    </g>
</svg>
