<?xml version="1.0" encoding="UTF-8" standalone="no"?>
<!DOCTYPE svg PUBLIC "-//W3C//DTD SVG 1.1//EN" "http://www.w3.org/Graphics/SVG/1.1/DTD/svg11.dtd">
<svg width="100%" height="100%" viewBox="0 0 48 48" version="1.1" xmlns="http://www.w3.org/2000/svg" xmlns:xlink="http://www.w3.org/1999/xlink" xml:space="preserve" xmlns:serif="http://www.serif.com/" style="fill-rule:evenodd;clip-rule:evenodd;stroke-linejoin:round;stroke-miterlimit:2;">
    <g transform="matrix(0.108157,0,0,0.108157,-21.319,-7.78729)">
        <path d="M613.8,183.2C588.4,183.2 565,174.8 546.2,160.6C524.6,144.3 509.1,120.5 503.7,93C502.3,86.2 501.6,79.2 501.5,72L429,72L429,378.6C429,407.6 410.1,432.2 383.9,440.8C376.3,443.3 368.1,444.5 359.6,444C348.7,443.4 338.5,440.1 329.6,434.8C310.7,423.5 297.9,403 297.5,379.5C297,342.8 326.6,312.9 363.2,312.9C370.4,312.9 377.4,314.1 383.9,316.2L383.9,242.6C377,241.6 370.1,241.1 363,241.1C322.9,241.1 285.4,257.8 258.6,287.8C238.3,310.5 226.2,339.5 224.3,369.8C221.8,409.7 236.4,447.6 264.7,475.6C268.9,479.7 273.2,483.5 277.8,487C302.1,505.7 331.7,515.8 363,515.8C370.1,515.8 377,515.3 383.9,514.3C413.1,510 440,496.6 461.3,475.6C487.4,449.8 501.9,415.5 502,379L501.6,217C514.1,226.6 527.7,234.6 542.3,240.7C565,250.3 589.2,255.2 614,255.1L614,183C614,183.2 613.8,183.2 613.8,183.2Z" style="fill:white;fill-rule:nonzero;"/>
    </g>
</svg>
